<svg xmlns="http://www.w3.org/2000/svg" viewBox="0 0 32 32">
  <defs>
    <linearGradient id="g" x1="0" y1="0" x2="1" y2="1">
      <stop offset="0%" stop-color="#ffb347"/>
      <stop offset="100%" stop-color="#e87a2e"/>
    </linearGradient>
  </defs>
  <!-- 7-cell honeycomb cluster -->
  <g fill="none" stroke="url(#g)" stroke-width="1.4" stroke-linejoin="round">
    <!-- center hex -->
    <polygon points="16,10.5 20.5,13.1 20.5,18.3 16,20.9 11.5,18.3 11.5,13.1"/>
    <!-- top -->
    <polygon points="16,2.3 20.5,4.9 20.5,10.1 16,12.7 11.5,10.1 11.5,4.9"/>
    <!-- top-right -->
    <polygon points="23.8,6.4 28.3,9 28.3,14.2 23.8,16.8 19.3,14.2 19.3,9"/>
    <!-- bottom-right -->
    <polygon points="23.8,14.6 28.3,17.2 28.3,22.4 23.8,25 19.3,22.4 19.3,17.2"/>
    <!-- bottom -->
    <polygon points="16,18.7 20.5,21.3 20.5,26.5 16,29.1 11.5,26.5 11.5,21.3"/>
    <!-- bottom-left -->
    <polygon points="8.2,14.6 12.7,17.2 12.7,22.4 8.2,25 3.7,22.4 3.7,17.2"/>
    <!-- top-left -->
    <polygon points="8.2,6.4 12.7,9 12.7,14.2 8.2,16.8 3.7,14.2 3.7,9"/>
  </g>
</svg>
